{
    "asset" : {
        "generator" : "Khronos glTF Blender I/O v1.8.19",
        "version" : "2.0"
    },
    "scene" : 0,
    "scenes" : [
        {
            "name" : "Scene",
            "nodes" : [
                0
            ]
        }
    ],
    "nodes" : [
        {
            "mesh" : 0,
            "name" : "Lightning1",
            "translation" : [
                0,
                5,
                0
            ]
        }
    ],
    "materials" : [
        {
            "doubleSided" : true,
            "emissiveFactor" : [
                1,
                1,
                1
            ],
            "name" : "Lightning Material",
            "pbrMetallicRoughness" : {}
        }
    ],
    "meshes" : [
        {
            "name" : "CUNurbsPath.001",
            "primitives" : [
                {
                    "attributes" : {
                        "POSITION" : 0,
                        "NORMAL" : 1
                    },
                    "indices" : 2,
                    "material" : 0
                }
            ]
        }
    ],
    "accessors" : [
        {
            "bufferView" : 0,
            "componentType" : 5126,
            "count" : 11967,
            "max" : [
                2.8832576274871826,
                0.003151970449835062,
                0.035814207047224045
            ],
            "min" : [
                -3.364687442779541,
                -5.00974178314209,
                -0.03581487014889717
            ],
            "type" : "VEC3"
        },
        {
            "bufferView" : 1,
            "componentType" : 5126,
            "count" : 11967,
            "type" : "VEC3"
        },
        {
            "bufferView" : 2,
            "componentType" : 5123,
            "count" : 17934,
            "type" : "SCALAR"
        }
    ],
    "bufferViews" : [
        {
            "buffer" : 0,
            "byteLength" : 143604,
            "byteOffset" : 0
        },
        {
            "buffer" : 0,
            "byteLength" : 143604,
            "byteOffset" : 143604
        },
        {
            "buffer" : 0,
            "byteLength" : 35868,
            "byteOffset" : 287208
        }
    ],
    "buffers" : [
        {
            "byteLength" : 323076,
            "uri" : "data:application/octet-stream;base64,"
        }
    ]
}
